<svg width="35" height="35" viewBox="0 0 35 35" fill="none" xmlns="http://www.w3.org/2000/svg">
<path d="M17.7091 15.7402C17.6842 15.7085 17.6525 15.6828 17.6162 15.6651C17.58 15.6475 17.5402 15.6383 17.4999 15.6383C17.4596 15.6383 17.4198 15.6475 17.3836 15.6651C17.3473 15.6828 17.3156 15.7085 17.2907 15.7402L13.572 20.4451C13.5413 20.4843 13.5223 20.5312 13.5171 20.5807C13.5119 20.6301 13.5207 20.6801 13.5425 20.7247C13.5643 20.7694 13.5983 20.8071 13.6405 20.8334C13.6827 20.8596 13.7314 20.8735 13.7812 20.8734H16.2349V28.9219C16.2349 29.068 16.3544 29.1875 16.5005 29.1875H18.4927C18.6388 29.1875 18.7583 29.068 18.7583 28.9219V20.8767H21.2187C21.4411 20.8767 21.564 20.6211 21.4278 20.4484L17.7091 15.7402Z" fill="#6B6B6B"/>
<path d="M27.441 12.6756C25.9203 8.66465 22.0455 5.8125 17.5066 5.8125C12.9678 5.8125 9.09297 8.66133 7.57227 12.6723C4.72676 13.4193 2.625 16.0125 2.625 19.0938C2.625 22.7627 5.59668 25.7344 9.2623 25.7344H10.5938C10.7398 25.7344 10.8594 25.6148 10.8594 25.4688V23.4766C10.8594 23.3305 10.7398 23.2109 10.5938 23.2109H9.2623C8.14336 23.2109 7.09082 22.766 6.30723 21.9592C5.52695 21.1557 5.11191 20.0732 5.14844 18.951C5.17832 18.0744 5.47715 17.251 6.01836 16.557C6.57285 15.8498 7.3498 15.3352 8.21309 15.1061L9.47148 14.7773L9.93301 13.5621C10.2186 12.8051 10.617 12.0979 11.1184 11.457C11.6133 10.8219 12.1996 10.2635 12.8582 9.8002C14.2229 8.84063 15.8299 8.33262 17.5066 8.33262C19.1834 8.33262 20.7904 8.84063 22.1551 9.8002C22.8158 10.265 23.4002 10.8229 23.8949 11.457C24.3963 12.0979 24.7947 12.8084 25.0803 13.5621L25.5385 14.774L26.7936 15.1061C28.5932 15.5908 29.8516 17.2277 29.8516 19.0938C29.8516 20.1928 29.4232 21.2287 28.6463 22.0057C28.2653 22.3889 27.812 22.6928 27.3127 22.8997C26.8135 23.1066 26.2781 23.2124 25.7377 23.2109H24.4062C24.2602 23.2109 24.1406 23.3305 24.1406 23.4766V25.4688C24.1406 25.6148 24.2602 25.7344 24.4062 25.7344H25.7377C29.4033 25.7344 32.375 22.7627 32.375 19.0938C32.375 16.0158 30.2799 13.426 27.441 12.6756Z" fill="#6B6B6B"/>
</svg>
